<svg width="96" height="96" viewBox="0 0 96 96" fill="none" xmlns="http://www.w3.org/2000/svg">
<path d="M1.72803 64.3198C1.91537 66.1469 3.86377 70.0752 9.0345 70.0752C14.2052 70.0752 63.6457 70.0752 87.7196 70.0752C89.5931 70.1665 93.1151 68.9241 94.464 64.3198" stroke="#E5DFD9" stroke-width="1.5"/>
<path d="M53.376 46.4638H42.816" stroke="#E5DFD9" stroke-width="1.5"/>
<path d="M34.7521 39.744C37.8554 28.2938 38.7018 27.456 41.523 27.456H56.4755C60.1431 27.456 59.5789 28.2938 62.4001 39.744" stroke="#E5DFD9" stroke-width="1.5"/>
<path d="M94.464 39.744H1.72803V89.0354C1.72803 92.6407 4.81923 95.232 7.91043 95.232H88.8437C93.34 95.232 94.464 90.5376 94.464 88.1904V39.744Z" stroke="#E5DFD9" stroke-width="1.5"/>
<rect x="26.8979" y="85.6498" width="4.06801" height="14.436" transform="rotate(-180 26.8979 85.6498)" stroke="#E5DFD9" stroke-width="1.5"/>
<rect x="70.6381" y="59.31" width="4.068" height="9.636" stroke="#E5DFD9" stroke-width="1.5"/>
<rect x="22.8301" y="59.31" width="4.068" height="9.636" stroke="#E5DFD9" stroke-width="1.5"/>
<rect x="74.7061" y="85.6498" width="4.06801" height="14.436" transform="rotate(-180 74.7061 85.6498)" stroke="#E5DFD9" stroke-width="1.5"/>
</svg>
