<svg width="96" height="96" viewBox="0 0 96 96" fill="none" xmlns="http://www.w3.org/2000/svg">
<path d="M75.6215 43.3317H19.741C9.75362 43.3317 8.10968 48.0002 7.48148 53.0264C6.34106 62.1507 4.35403 82.8593 3.77512 86.6724C3.19621 90.4854 4.62173 94.6562 7.48148 94.6562C30.9551 94.6562 82.3983 93.8095 86.7319 93.8095C91.0655 93.8095 93.0042 89.9152 92.1576 86.6724C91.2072 78.0233 89.0784 59.1853 88.1661 53.0264C87.2538 46.8674 84.451 43.3317 75.6215 43.3317Z" stroke="#E5DFD9" stroke-width="1.5"/>
<path d="M38.5492 86.6726H58.2214" stroke="#E5DFD9" stroke-width="1.5"/>
<path d="M23.1536 43.1529C32.8471 -12.1635 61.9278 -13.0189 72.7618 43.1529" stroke="#E5DFD9" stroke-width="1.5"/>
<path d="M27.7152 43.3316C35.626 -7.97554 59.3586 -8.76897 68.2001 43.3316" stroke="#E5DFD9" stroke-width="1.5"/>
</svg>
