<svg width="96" height="96" viewBox="0 0 96 96" fill="none" xmlns="http://www.w3.org/2000/svg">
<path d="M82.6476 40.5899C63.4014 38.4564 32.4729 38.6448 14.8655 40.5899C7.77536 41.3732 7.77536 42.429 6.42696 46.6682C2.5142 63.9306 1.53601 74.6285 1.53601 84.5969C1.53601 93.7893 8.90979 94.0173 14.8655 94.6406C24.1583 95.6131 74.6557 94.5654 83.4594 94.0791C92.2631 93.5928 94.464 91.0317 94.464 84.5969C94.464 76.7821 92.1083 52.6443 90.305 46.6682C89.1063 42.6956 88.887 41.2816 82.6476 40.5899Z" stroke="#E5DFD9" stroke-width="1.5"/>
<path d="M36.136 39.0238V32.2055C36.2306 31.2651 37.1003 29.3841 39.8229 29.3841C42.5456 29.3841 52.1126 29.3841 56.5557 29.3841C57.6902 29.3058 59.959 29.7603 59.959 32.2055C59.959 34.6507 59.959 37.7699 59.959 39.0238" stroke="#E5DFD9" stroke-width="1.5"/>
<path d="M41.241 48.3878H55.4213" stroke="#E5DFD9" stroke-width="1.5"/>
<path d="M21.9557 72.5074L21.9557 94.6406" stroke="#E5DFD9" stroke-width="1.5"/>
<path d="M73.5722 72.5074L73.5722 94.6406" stroke="#E5DFD9" stroke-width="1.5"/>
<path d="M63.7467 77.8989C63.7467 86.4178 56.8445 93.3231 48.3311 93.3231C39.8177 93.3231 32.9155 86.4178 32.9155 77.8989C32.9155 69.3799 39.8177 62.4747 48.3311 62.4747C56.8445 62.4747 63.7467 69.3799 63.7467 77.8989Z" stroke="#E5DFD9" stroke-width="1.5"/>
</svg>
