<svg width="90" height="90" viewBox="0 0 90 90" fill="none" xmlns="http://www.w3.org/2000/svg">
<path d="M13.1742 31.0675V25.14C13.2563 24.3224 14.0114 22.6873 16.3753 22.6873C18.7391 22.6873 27.0454 22.6873 30.9031 22.6873C31.888 22.6191 33.8579 23.0143 33.8579 25.14C33.8579 27.2657 33.8579 29.9774 33.8579 31.0675" stroke="#E5DFD9" stroke-width="0.9"/>
<path d="M19.5763 47.5954H27.702M7.75708 30.8293H39.5212C41.7373 30.8293 42.476 31.8075 42.9685 33.7896C43.3967 35.5131 44.2818 67.7499 44.9384 83.6199C45.0205 84.6067 45.4308 86.5802 42.2298 86.5802C40.6539 86.5802 17.3602 86.5802 5.04851 86.5802C2.33994 86.5802 2.33994 85.7908 2.33994 83.6199C2.33994 81.4491 3.48903 49.4952 4.06357 33.7896C4.06357 32.5476 4.55604 30.8293 7.75708 30.8293Z" stroke="#E5DFD9" stroke-width="0.9"/>
<path d="M8.24954 86.5802L9.23448 58.2114C9.23448 56.2294 10.4164 55.4978 12.1893 55.4978C13.9622 55.4978 28.0303 55.4978 34.8428 55.4978C35.9098 55.4978 38.0438 56.0406 38.0438 58.2114C38.0438 60.3822 38.8646 78.0284 39.275 86.5802" stroke="#E5DFD9" stroke-width="0.9"/>
<path d="M15.3903 55.7445V86.3335" stroke="#E5DFD9" stroke-width="0.9"/>
<path d="M32.3804 55.4978V86.3335" stroke="#E5DFD9" stroke-width="0.9"/>
<path d="M3.81732 41.6835C4.14563 42.5058 4.30979 44.1503 7.75706 44.1503C10.1209 44.1503 29.2615 44.1503 38.5363 44.1503C42.7223 44.1503 43.2147 42.415 43.461 41.4282" stroke="#E5DFD9" stroke-width="0.9"/>
<path d="M41.9401 60.4801L45.9001 57.0601L46.3501 87.7501H42.9301L40.0501 85.5001L39.6001 80.5501V73.1701L40.5901 65.7901L41.9401 60.4801Z" fill="#0C0C0C"/>
<path d="M82.0232 58.8172C72.2559 57.7294 56.56 57.8254 47.6245 58.8171C44.0263 59.2165 44.0263 59.7549 43.342 61.9163C41.3563 70.7178 40.8599 76.1723 40.8599 81.2549C40.8599 85.9418 44.602 86.0581 47.6245 86.3759C52.3405 86.8717 77.9673 86.3375 82.4351 86.0896C86.9029 85.8417 88.0199 84.5358 88.0199 81.2549C88.0199 77.2704 86.8243 64.9633 85.9092 61.9163C85.3009 59.8908 85.1896 59.1698 82.0232 58.8172Z" stroke="#E5DFD9" stroke-width="0.9"/>
<path d="M58.419 58.0187V54.5423C58.467 54.0628 58.9084 53.1038 60.2901 53.1038C61.6718 53.1038 66.527 53.1038 68.7818 53.1038C69.3575 53.0638 70.509 53.2956 70.509 54.5423C70.509 55.789 70.509 57.3794 70.509 58.0187" stroke="#E5DFD9" stroke-width="0.9"/>
<path d="M61.0097 62.7931H68.2061" stroke="#E5DFD9" stroke-width="0.9"/>
<path d="M51.2227 75.0909L51.2227 86.3759" stroke="#E5DFD9" stroke-width="0.9"/>
<path d="M77.4175 75.0909L77.4175 86.3759" stroke="#E5DFD9" stroke-width="0.9"/>
<path d="M72.3618 77.8398C72.3618 82.148 68.888 85.6365 64.6079 85.6365C60.3278 85.6365 56.854 82.148 56.854 77.8398C56.854 73.5316 60.3278 70.0431 64.6079 70.0431C68.888 70.0431 72.3618 73.5316 72.3618 77.8398Z" stroke="#E5DFD9" stroke-width="0.9"/>
</svg>
